# xmcd CD database file
#
# Track frame offsets:
#	182
#	43527
#	76555
#	105335
#	125072
#	158580
#	186742
#	223025
#
# Disc length: 3325 seconds
#
# Revision: 0
# Processed by: cddbd v1.5.2PL0 Copyright (c) Steve Scherf et al.
# Submitted via: CDex 1.51
#
DISCID=630cfb08
DTITLE=The Phillip Snyder Jazz Quintet - Hatched!
DYEAR=1993
DGENRE=Jazz
TTITLE0=Give the Man a Home
TTITLE1=Girl Talk
TTITLE2=Misterioso
TTITLE3=Be My Love
TTITLE4=For Heaven's Sake
TTITLE5=Send in the Clowns
TTITLE6=Cool Breeze
TTITLE7=Brain Child
EXTD=YEAR: 1993
EXTT0=
EXTT1=
EXTT2=
EXTT3=
EXTT4=
EXTT5=
EXTT6=
EXTT7=
PLAYORDER=
